<svg xmlns="http://www.w3.org/2000/svg" viewBox="0 0 640 380" font-family="sans-serif" role="img" aria-label="ProMem Q2: injection rate versus Crafter score with spam collapse">
<rect width="100%" height="100%" fill="white"/>
<line x1="64" y1="328.0" x2="616" y2="328.0" stroke="#e1e0d9"/>
<text x="56" y="332.0" font-size="11" fill="#898781" text-anchor="end">0</text>
<line x1="64" y1="280.7" x2="616" y2="280.7" stroke="#e1e0d9"/>
<text x="56" y="284.7" font-size="11" fill="#898781" text-anchor="end">2</text>
<line x1="64" y1="233.3" x2="616" y2="233.3" stroke="#e1e0d9"/>
<text x="56" y="237.3" font-size="11" fill="#898781" text-anchor="end">4</text>
<line x1="64" y1="186.0" x2="616" y2="186.0" stroke="#e1e0d9"/>
<text x="56" y="190.0" font-size="11" fill="#898781" text-anchor="end">6</text>
<line x1="64" y1="138.7" x2="616" y2="138.7" stroke="#e1e0d9"/>
<text x="56" y="142.7" font-size="11" fill="#898781" text-anchor="end">8</text>
<line x1="64" y1="91.3" x2="616" y2="91.3" stroke="#e1e0d9"/>
<text x="56" y="95.3" font-size="11" fill="#898781" text-anchor="end">10</text>
<line x1="64" y1="44.0" x2="616" y2="44.0" stroke="#e1e0d9"/>
<text x="56" y="48.0" font-size="11" fill="#898781" text-anchor="end">12</text>
<text x="64.0" y="346" font-size="11" fill="#898781" text-anchor="middle">0.0</text>
<text x="174.4" y="346" font-size="11" fill="#898781" text-anchor="middle">0.2</text>
<text x="284.8" y="346" font-size="11" fill="#898781" text-anchor="middle">0.4</text>
<text x="395.2" y="346" font-size="11" fill="#898781" text-anchor="middle">0.6</text>
<text x="505.6" y="346" font-size="11" fill="#898781" text-anchor="middle">0.8</text>
<text x="616.0" y="346" font-size="11" fill="#898781" text-anchor="middle">1.0</text>
<text x="340" y="372" font-size="12" fill="#52514e" text-anchor="middle">injection rate (reminders / step)</text>
<text x="16" y="186" font-size="12" fill="#52514e" text-anchor="middle" transform="rotate(-90 16 186)">Crafter score %</text>
<line x1="64" y1="112.8" x2="616" y2="112.8" stroke="#1baf7a" stroke-width="2" stroke-dasharray="6 4"/>
<text x="616" y="107.8" font-size="11" fill="#1baf7a" text-anchor="end">full-context 9.09</text>
<line x1="64" y1="220.4" x2="616" y2="220.4" stroke="#898781" stroke-width="2" stroke-dasharray="6 4"/>
<text x="616" y="215.4" font-size="11" fill="#898781" text-anchor="end">no-mem 4.55</text>
<polyline points="106.3,77.0 128.4,184.6 167.0,184.6 232.4,148.7 327.1,184.6 605.0,220.4" fill="none" stroke="#2a78d6" stroke-width="2"/>
<circle cx="106.3" cy="77.0" r="6" fill="#008300"/>
<circle cx="128.4" cy="184.6" r="4" fill="#2a78d6"/>
<circle cx="167.0" cy="184.6" r="4" fill="#2a78d6"/>
<circle cx="232.4" cy="148.7" r="4" fill="#2a78d6"/>
<circle cx="327.1" cy="184.6" r="4" fill="#2a78d6"/>
<circle cx="605.0" cy="220.4" r="6" fill="#e34948"/>
<text x="114.3" y="69.0" font-size="11" fill="#008300">best 10.6% @ 115 tok</text>
<text x="597.0" y="212.4" font-size="11" fill="#e34948" text-anchor="end">spam collapse to no-mem</text>
<text x="64" y="24" font-size="13" fill="#0b0b0b">ProMem Q2: sparse selective injection wins; over-injection collapses to no-mem</text>
</svg>